<svg xmlns="http://www.w3.org/2000/svg" viewBox="0 0 1024 1024" role="img" aria-label="Liare Ateliê">
  <defs>
    <filter id="soft" x="-20%" y="-20%" width="140%" height="140%">
      <feDropShadow dx="0" dy="10" stdDeviation="10" flood-color="#7a3f2c" flood-opacity=".18"/>
    </filter>
  </defs>

  <rect width="1024" height="1024" rx="210" fill="#B66F54"/>

  <g fill="none" stroke="#F7EEDF" stroke-width="24" stroke-linecap="round" stroke-linejoin="round" filter="url(#soft)">
    <path d="M331 354c55-36 307-36 362 0"/>
    <path d="M331 354v238c0 40 76 70 181 70s181-30 181-70V354"/>
    <path d="M343 407c47 39 292 39 338 0"/>
    <path d="M512 126c-41 67-66 112-66 154 0 31 17 57 43 72-8-24-4-50 23-82 27 32 31 58 23 82 26-15 43-41 43-72 0-42-25-87-66-154z"/>
    <path d="M512 270v84"/>

    <path d="M667 568c43-12 75-39 91-80-41 5-72 25-91 61"/>
    <path d="M700 599c46 7 85-4 114-35-39-15-76-12-110 11"/>
    <path d="M666 603c20 39 51 63 94 72 4-42-10-75-44-99"/>
    <path d="M650 607c-2 43-20 77-55 102-16-39-10-75 15-105"/>
  </g>

  <g fill="#F7EEDF" text-anchor="middle">
    <text x="512" y="823" font-family="Georgia, 'Times New Roman', serif" font-size="126" letter-spacing="24">LIARE</text>
    <text x="512" y="900" font-family="Arial, Helvetica, sans-serif" font-size="40" letter-spacing="20">ATELIÊ</text>
  </g>

  <g stroke="#F7EEDF" stroke-width="8" stroke-linecap="round">
    <path d="M256 885h118"/>
    <path d="M650 885h118"/>
  </g>
</svg>